<svg width="384" height="1346" viewBox="0 0 384 1346" fill="none" xmlns="http://www.w3.org/2000/svg">
<path d="M244.689 1345.96L243.969 1323.27C292.912 1309.86 324.031 1295.12 342.98 1280.17C352.451 1272.7 358.885 1265.18 362.982 1257.74C367.08 1250.31 368.842 1242.98 368.977 1235.89C369.053 1231.75 368.579 1227.89 367.654 1224.16C366.729 1220.45 365.365 1216.89 363.673 1213.4C360.284 1206.41 355.56 1199.63 350.42 1192.23C343.554 1182.37 335.926 1171.42 329.686 1157.41C323.446 1143.39 318.587 1126.31 317.253 1104.17C314.689 1061.6 326.701 1025.95 338.426 991.171C344.075 974.413 349.653 957.865 353.505 940.838C357.357 923.8 359.476 906.283 358.206 887.635C356.9 868.448 352.492 855.11 346.41 844.602C340.322 834.093 332.554 826.364 324.529 818.385C316.058 809.967 307.301 801.268 299.931 788.68C292.561 776.091 286.567 759.624 283.64 735.667C280.783 712.361 281.328 686.054 284.009 658.808C286.696 631.572 291.519 603.396 297.244 576.37C308.694 522.308 323.721 472.795 332.338 444.409C342.676 410.374 351.287 387.957 358.03 370.4C368.76 342.464 374.76 326.866 375.445 296.24C376.323 256.656 367.853 212.502 354.453 176.107C341.054 139.703 322.726 111.057 303.888 102.488C291.461 96.8388 281.533 101.158 272.389 111.367C263.245 121.575 254.88 137.653 245.59 155.52C228.848 187.726 209.092 225.72 176.299 245.588C171.979 248.207 147.352 262.165 117.416 255.836C102.447 252.666 86.1562 244.428 70.4212 227.15C54.6803 209.873 39.4897 183.576 26.7285 144.282C11.4325 97.1787 3.92205 44.6662 0.00585938 7.51148L7.41677 0.762451C12.7028 50.8953 21.0912 93.8892 32.3422 128.534C43.2245 162.029 56.9458 188.016 73.1374 205.783C86.484 220.421 101.569 229.62 117.977 233.089C146.567 239.138 170.269 225.96 174.736 223.261C206.083 204.263 224.815 168.239 241.34 136.453C250.783 118.296 259.698 101.128 269.632 90.0497C281.023 77.3515 292.28 74.142 305.071 79.9612C324.47 88.7899 344.385 117.726 359.716 159.36C375.621 202.574 384.173 252.996 383.184 297.73C382.294 337.704 374.274 358.591 363.17 387.477C356.479 404.875 348.155 426.541 338.127 459.587C329.452 488.163 314.923 536.006 303.83 588.408C297.859 616.604 293.697 642.421 291.455 665.157C289.026 689.814 288.844 710.951 290.928 727.958C292.936 744.346 297.034 757.384 303.824 768.973C310.521 780.411 318.903 788.74 327.011 796.798C335.522 805.257 343.565 813.246 350.338 824.954C359.119 840.132 364.182 859.18 365.81 883.176C367.373 906.143 365.459 929.15 359.962 953.456C355.694 972.343 349.718 990.071 343.934 1007.23C333.181 1039.13 323.024 1069.27 324.892 1100.23C325.723 1114.03 328.831 1126.83 334.398 1139.33C340.03 1151.97 347.359 1162.49 353.827 1171.78C359.183 1179.47 364.235 1186.72 368.128 1194.75C370.645 1199.95 372.542 1205.18 373.923 1210.75C375.925 1218.83 376.897 1227.96 376.727 1237.17C376.44 1252.6 373.186 1266.06 367.062 1277.17C362.046 1286.27 354.828 1294.46 345 1302.22C323.979 1318.79 290.237 1333.52 244.695 1346" fill="#FDE3CB"/>
</svg>
