<svg width="680" height="2387" viewBox="0 0 680 2387" fill="none" xmlns="http://www.w3.org/2000/svg">
<path d="M261.999 0.0253313L263.228 15.1566C179.615 24.0901 126.457 33.927 94.0868 43.8907C77.9017 48.8725 66.9152 53.8881 59.9198 58.8446C52.9244 63.8011 49.9127 68.69 49.6844 73.4185C49.5519 76.1796 50.3692 78.755 51.945 81.2374C53.5209 83.7115 55.8551 86.0842 58.749 88.4146C64.5441 93.0756 72.6073 97.593 81.392 102.524C93.1222 109.102 106.148 116.397 116.811 125.745C127.473 135.092 135.772 146.482 138.047 161.242C142.429 189.63 121.906 213.399 101.878 236.586C92.2312 247.757 82.7028 258.793 76.1197 270.15C69.544 281.507 65.9211 293.184 68.086 305.622C70.3172 318.414 77.8428 327.306 88.2401 334.314C98.6375 341.322 111.907 346.473 125.618 351.792C140.087 357.408 155.05 363.208 167.642 371.602C180.233 379.995 190.469 390.972 195.476 406.947C200.351 422.484 199.43 440.03 194.843 458.192C190.255 476.355 182.008 495.142 172.229 513.161C152.672 549.208 126.995 582.223 112.275 601.145C94.617 623.842 79.9046 638.787 68.3879 650.491C50.0526 669.117 39.8025 679.52 38.639 699.937C37.1369 726.332 51.6063 755.776 74.4997 780.043C97.3931 804.311 128.696 823.41 160.875 829.127C182.104 832.893 199.062 830.013 214.688 823.208C230.313 816.402 244.599 805.678 260.467 793.764C289.067 772.292 322.815 746.961 378.837 733.712C386.215 731.964 428.291 722.659 479.423 726.881C504.99 728.992 532.824 734.489 559.708 746.006C586.6 757.524 612.55 775.061 634.346 801.262C660.479 832.665 673.307 867.681 680 892.455L667.342 896.956C658.314 863.527 643.985 834.86 624.758 811.758C606.173 789.424 582.727 772.098 555.069 760.251C532.272 750.49 506.499 744.36 478.466 742.046C429.631 738.01 389.131 746.8 381.51 748.599C327.962 761.264 295.96 785.287 267.728 806.481C251.601 818.589 236.366 830.03 219.393 837.419C199.938 845.888 180.705 848.024 158.85 844.148C125.713 838.263 91.6863 818.969 65.5014 791.206C38.3298 762.396 23.7204 728.773 25.414 698.949C26.9309 672.292 40.6346 658.369 59.6032 639.108C71.0314 627.507 85.2505 613.059 102.386 591.03C117.209 571.972 142.024 540.072 160.978 505.131C171.176 486.335 178.289 469.119 182.118 453.962C186.272 437.522 186.573 423.429 183.017 412.089C179.585 401.163 172.59 392.466 160.992 384.74C149.549 377.115 135.227 371.559 121.384 366.189C106.841 360.549 93.1075 355.221 81.5319 347.41C66.5323 337.295 57.8874 324.595 55.0966 308.594C52.431 293.277 55.6931 277.943 65.089 261.731C72.379 249.142 82.5923 237.32 92.4668 225.879C110.839 204.609 128.188 184.513 124.999 163.877C123.578 154.664 118.269 146.136 108.762 137.802C99.1456 129.375 86.6202 122.359 75.5748 116.161C66.4292 111.035 57.7917 106.197 51.1424 100.844C46.8421 97.3819 43.6021 93.8946 41.2457 90.1794C37.8217 84.7923 36.1649 78.7043 36.4594 72.5657C36.9528 62.2727 42.5123 53.297 52.9686 45.8918C61.5398 39.8292 73.8665 34.3661 90.6628 29.1901C126.568 18.1372 184.217 8.31711 262.013 0" fill="#FDE3CB"/>
<path d="M418.044 2386.96L416.815 2364.27C500.428 2350.86 553.586 2336.11 585.956 2321.16C602.141 2313.69 613.128 2306.17 620.123 2298.73C627.119 2291.3 630.13 2283.97 630.359 2276.87C630.491 2272.73 629.674 2268.87 628.098 2265.14C626.522 2261.43 624.188 2257.87 621.294 2254.38C615.499 2247.39 607.436 2240.61 598.651 2233.21C586.921 2223.35 573.895 2212.4 563.232 2198.38C552.57 2184.36 544.271 2167.28 541.996 2145.14C537.614 2102.56 558.136 2066.9 578.165 2032.12C587.812 2015.36 597.34 1998.81 603.923 1981.78C610.499 1964.74 614.122 1947.22 611.957 1928.57C609.726 1909.38 602.2 1896.04 591.803 1885.53C581.405 1875.02 568.136 1867.29 554.425 1859.31C539.956 1850.89 524.993 1842.19 512.401 1829.6C499.81 1817.01 489.574 1800.54 484.567 1776.58C479.692 1753.27 480.613 1726.96 485.2 1699.71C489.788 1672.47 498.035 1644.29 507.814 1617.26C527.371 1563.19 553.048 1513.67 567.768 1485.28C585.426 1451.24 600.138 1428.82 611.655 1411.26C629.99 1383.32 640.24 1367.72 641.404 1337.09C642.906 1297.5 628.437 1253.34 605.543 1216.94C582.65 1180.53 551.347 1151.88 519.168 1143.31C497.939 1137.66 480.981 1141.98 465.355 1152.19C449.73 1162.4 435.444 1178.48 419.576 1196.35C390.976 1228.56 357.228 1266.56 301.206 1286.43C293.828 1289.05 251.752 1303.01 200.62 1296.68C175.053 1293.51 147.219 1285.27 120.335 1267.99C93.4427 1250.71 67.4934 1224.41 45.6972 1185.11C19.5638 1138 6.73647 1085.48 0.0429688 1048.32L12.701 1041.57C21.7287 1091.71 36.0583 1134.71 55.2846 1169.36C73.8703 1202.86 97.3159 1228.85 124.974 1246.62C147.771 1261.26 173.544 1270.46 201.577 1273.93C250.412 1279.98 290.912 1266.8 298.533 1264.1C352.081 1245.1 384.083 1209.07 412.315 1177.28C428.442 1159.12 443.677 1141.95 460.65 1130.87C480.105 1118.17 499.338 1114.96 521.193 1120.78C554.33 1129.61 588.357 1158.55 614.542 1200.19C641.713 1243.41 656.323 1293.84 654.629 1338.58C653.112 1378.56 639.408 1399.45 620.44 1428.34C609.012 1445.74 594.792 1467.41 577.657 1500.46C562.834 1529.04 538.019 1576.89 519.065 1629.3C508.867 1657.5 501.754 1683.32 497.924 1706.06C493.771 1730.72 493.469 1751.86 497.026 1768.87C500.458 1785.26 507.453 1798.3 519.051 1809.89C530.494 1821.33 544.816 1829.66 558.659 1837.72C573.202 1846.18 586.935 1854.17 598.511 1865.88C613.511 1881.06 622.156 1900.11 624.946 1924.11C627.612 1947.08 624.35 1970.09 614.954 1994.4C607.664 2013.29 597.451 2031.02 587.576 2048.18C569.204 2080.09 551.855 2110.23 555.044 2141.19C556.465 2155 561.774 2167.8 571.281 2180.3C580.897 2192.94 593.423 2203.46 604.468 2212.76C613.614 2220.45 622.251 2227.7 628.901 2235.73C633.201 2240.93 636.441 2246.16 638.797 2251.73C642.221 2259.81 643.878 2268.94 643.584 2278.15C643.09 2293.59 637.531 2307.05 627.074 2318.16C618.503 2327.26 606.177 2335.45 589.38 2343.21C553.475 2359.79 495.826 2374.52 418.03 2387" fill="#FDE3CB"/>
<path d="M458.842 729.878C414.663 718.779 278.82 779.029 212.344 839.676L613.059 865.837L654.761 834.126L596.749 767.138L512.312 737.805L458.842 729.878Z" fill="#FDE3CB"/>
<path d="M508.009 1110.38H633.748V1240.37V1246.69L584.096 1164.54L508.009 1110.38Z" fill="#FDE3CB"/>
<path d="M144.052 842.04H32.7051V730.317V724.886L76.6738 795.489L144.052 842.04Z" fill="#FDE3CB"/>
<path d="M231.17 1293.38C276.928 1310.8 417.624 1216.24 486.475 1121.06L71.4437 1080.01L28.2514 1129.77L88.3357 1234.91L175.789 1280.94L231.17 1293.38Z" fill="#FDE3CB"/>
<rect x="40.1279" y="836.548" width="593.849" height="289.222" fill="#FDE3CB"/>
</svg>
