<svg width="393" height="1286" viewBox="0 0 393 1286" fill="none" xmlns="http://www.w3.org/2000/svg">
<path d="M142.446 -17.9862L143.274 -9.72009C86.9546 -4.83979 51.1491 0.534082 29.3453 5.97714C18.4435 8.69867 11.0433 11.4387 6.33139 14.1463C1.61948 16.854 -0.409119 19.5248 -0.562897 22.108C-0.652161 23.6163 -0.101624 25.0232 0.959808 26.3794C2.02121 27.7309 3.59351 29.0271 5.54276 30.3002C9.4462 32.8465 14.8773 35.3143 20.7945 38.0082C28.6956 41.6015 37.4696 45.5869 44.6516 50.6933C51.8335 55.7996 57.4234 62.0222 58.956 70.0853C61.9071 85.5934 48.0839 98.5784 34.5929 111.245C28.0954 117.348 21.6773 123.377 17.2432 129.581C12.814 135.785 10.3737 142.164 11.8319 148.959C13.3347 155.947 18.4038 160.805 25.4072 164.633C32.4106 168.462 41.3483 171.276 50.5836 174.182C60.3299 177.249 70.4084 180.418 78.8898 185.003C87.3713 189.588 94.2655 195.585 97.6383 204.312C100.922 212.8 100.302 222.385 97.2117 232.307C94.1217 242.229 88.5666 252.492 81.9798 262.336C68.8063 282.028 51.5111 300.064 41.5963 310.401C29.7025 322.8 19.7926 330.965 12.0353 337.358C-0.31488 347.534 -7.21909 353.217 -8.00275 364.37C-9.01456 378.79 0.731659 394.875 16.152 408.132C31.5723 421.389 52.6569 431.823 74.3317 434.946C88.6311 437.003 100.054 435.43 110.579 431.712C121.104 427.994 130.726 422.136 141.414 415.627C160.679 403.897 183.41 390.059 221.145 382.821C226.115 381.867 254.456 376.783 288.897 379.09C306.118 380.243 324.866 383.246 342.975 389.538C361.089 395.829 378.567 405.41 393.249 419.724C410.851 436.878 419.491 456.008 424 469.541L415.474 472C409.393 453.738 399.741 438.078 386.791 425.457C374.272 413.257 358.48 403.791 339.85 397.319C324.494 391.987 307.135 388.638 288.252 387.374C255.358 385.169 228.079 389.971 222.945 390.954C186.877 397.873 165.321 410.996 146.305 422.574C135.443 429.189 125.181 435.439 113.748 439.475C100.644 444.102 87.6887 445.269 72.9677 443.152C50.6481 439.937 27.7284 429.397 10.091 414.23C-8.21106 398.491 -18.0515 380.123 -16.9107 363.831C-15.889 349.268 -6.65863 341.662 6.11807 331.14C13.8159 324.802 23.3935 316.91 34.9352 304.875C44.9194 294.464 61.6343 277.037 74.4011 257.949C81.2706 247.681 86.0618 238.276 88.641 229.996C91.4384 221.015 91.6418 213.316 89.2461 207.121C86.9348 201.152 82.2229 196.401 74.411 192.181C66.7033 188.015 57.0563 184.98 47.7317 182.046C37.9359 178.965 28.6857 176.054 20.8887 171.788C10.7854 166.261 4.96243 159.324 3.08264 150.583C1.28714 142.215 3.48438 133.838 9.81323 124.982C14.7235 118.104 21.6029 111.646 28.2542 105.396C40.6291 93.7765 52.3147 82.7981 50.167 71.5245C49.2098 66.492 45.6337 61.8331 39.2304 57.2803C32.7528 52.6768 24.316 48.8436 16.8761 45.4578C10.7159 42.6578 4.89795 40.0147 0.419159 37.0902C-2.47742 35.199 -4.65979 33.2939 -6.24695 31.2643C-8.55331 28.3214 -9.66928 24.9956 -9.47089 21.6421C-9.13858 16.0191 -5.39383 11.1158 1.64923 7.07037C7.42258 3.7584 15.7255 0.773947 27.039 -2.05368C51.2235 -8.09178 90.0546 -13.4564 142.456 -18" fill="#FDE3CB"/>
<path d="M247.554 1285.98L246.726 1273.58C303.045 1266.26 338.851 1258.2 360.655 1250.03C371.557 1245.95 378.957 1241.84 383.669 1237.78C388.381 1233.72 390.409 1229.71 390.563 1225.84C390.652 1223.58 390.102 1221.47 389.04 1219.43C387.979 1217.4 386.406 1215.46 384.457 1213.55C380.554 1209.73 375.123 1206.03 369.206 1201.99C361.304 1196.6 352.53 1190.62 345.348 1182.96C338.166 1175.3 332.577 1165.97 331.044 1153.87C328.093 1130.61 341.916 1111.13 355.407 1092.13C361.905 1082.98 368.323 1073.94 372.757 1064.63C377.186 1055.32 379.626 1045.75 378.168 1035.56C376.665 1025.08 371.596 1017.79 364.593 1012.05C357.589 1006.31 348.652 1002.09 339.416 997.728C329.67 993.126 319.592 988.373 311.11 981.495C302.629 974.618 295.734 965.623 292.362 952.532C289.078 939.801 289.698 925.423 292.788 910.54C295.878 895.656 301.433 880.261 308.02 865.496C321.194 835.958 338.489 808.904 348.404 793.398C360.298 774.8 370.207 762.553 377.965 752.963C390.315 737.699 397.219 729.175 398.003 712.444C399.015 690.815 389.268 666.688 373.848 646.802C358.428 626.917 337.343 611.266 315.668 606.581C301.369 603.496 289.946 605.855 279.421 611.432C268.896 617.009 259.274 625.796 248.586 635.559C229.321 653.154 206.59 673.912 168.855 684.768C163.885 686.2 135.544 693.825 101.103 690.365C83.882 688.636 65.1336 684.131 47.025 674.694C28.9114 665.256 11.4327 650.885 -3.24859 629.415C-20.8513 603.682 -29.4914 574.989 -34 554.688L-25.4739 551C-19.3931 578.393 -9.74111 601.883 3.20921 620.814C15.728 639.115 31.5203 653.313 50.1497 663.021C65.5056 671.019 82.8653 676.043 101.748 677.939C134.642 681.246 161.921 674.043 167.055 672.569C203.123 662.191 224.679 642.506 243.695 625.139C254.557 615.217 264.819 605.841 276.252 599.787C289.356 592.847 302.311 591.096 317.032 594.272C339.352 599.095 362.272 614.905 379.909 637.655C398.211 661.263 408.052 688.815 406.911 713.254C405.889 735.098 396.659 746.507 383.882 762.29C376.184 771.797 366.607 783.635 355.065 801.688C345.081 817.304 328.366 843.445 315.599 872.076C308.729 887.478 303.938 901.586 301.359 914.006C298.562 927.478 298.358 939.026 300.754 948.318C303.065 957.271 307.777 964.398 315.589 970.729C323.297 976.977 332.944 981.53 342.268 985.931C352.064 990.553 361.314 994.918 369.111 1001.32C379.215 1009.61 385.038 1020.01 386.917 1033.13C388.713 1045.68 386.516 1058.24 380.187 1071.53C375.276 1081.84 368.397 1091.53 361.746 1100.91C349.371 1118.34 337.685 1134.8 339.833 1151.71C340.79 1159.26 344.366 1166.25 350.77 1173.08C357.247 1179.98 365.684 1185.73 373.124 1190.81C379.284 1195.01 385.102 1198.98 389.581 1203.36C392.477 1206.2 394.66 1209.06 396.247 1212.1C398.553 1216.52 399.669 1221.51 399.471 1226.54C399.139 1234.97 395.394 1242.33 388.351 1248.39C382.577 1253.36 374.275 1257.84 362.961 1262.08C338.777 1271.14 299.945 1279.18 247.544 1286" fill="#FDE3CB"/>
<path d="M275.035 380.727C245.276 374.664 153.776 407.578 109 440.709L378.91 455L407 437.677L367.925 401.081L311.05 385.057L275.035 380.727Z" fill="#FDE3CB"/>
<path d="M308.151 588.591H392.846V659.604V663.056L359.401 618.18L308.151 588.591Z" fill="#FDE3CB"/>
<path d="M63 442H-12V380.967V378L17.6161 416.57L63 442Z" fill="#FDE3CB"/>
<path d="M121.68 688.564C152.502 698.08 247.27 646.424 293.646 594.429L14.0933 572L-14.9998 599.187L25.4713 656.62L84.3777 681.768L121.68 688.564Z" fill="#FDE3CB"/>
<rect x="-7" y="439" width="400" height="158" fill="#FDE3CB"/>
</svg>
