<svg width="1512" height="3467" viewBox="0 0 1512 3467" fill="none" xmlns="http://www.w3.org/2000/svg">
<g clip-path="url(#clip0_27_694)">
<path d="M1626 1388.63L1594.04 1395.75C1578.45 1359.62 1556.62 1327.02 1528.84 1298.33L1517.08 1303.89V2271.95L1516.68 2271.52C1517.19 2277.16 1517.22 2282.75 1516.75 2288.26C1512.92 2333.21 1478.32 2356.69 1430.43 2389.17C1401.57 2408.74 1365.67 2433.1 1322.41 2470.26C1284.98 2502.4 1222.33 2556.2 1174.47 2615.12C1148.71 2646.82 1130.76 2675.86 1121.09 2701.42C1110.6 2729.14 1109.84 2752.9 1118.82 2772.04C1127.49 2790.46 1145.15 2805.12 1174.44 2818.16C1203.32 2831.01 1239.48 2840.38 1274.43 2849.45C1311.16 2858.95 1345.83 2867.94 1375.05 2881.11C1412.93 2898.17 1434.76 2919.59 1441.8 2946.57C1448.54 2972.41 1440.3 2998.27 1416.58 3025.6C1398.17 3046.84 1372.38 3066.77 1347.45 3086.07C1301.06 3121.93 1257.26 3155.83 1265.3 3190.63C1268.9 3206.17 1282.3 3220.54 1306.31 3234.6C1330.58 3248.81 1362.21 3260.65 1390.1 3271.1C1413.2 3279.75 1435 3287.9 1451.78 3296.93C1462.65 3302.77 1470.83 3308.65 1476.77 3314.92C1485.42 3324 1489.6 3334.27 1488.86 3344.62C1487.62 3361.98 1473.58 3377.12 1447.17 3389.6C1425.53 3399.82 1394.42 3409.05 1352 3417.77C1261.34 3436.42 1115.79 3452.97 919.368 3467L919.398 3466.95L916.294 3441.44C1127.41 3426.38 1261.63 3409.78 1343.36 3392.98C1384.23 3384.58 1411.96 3376.12 1429.62 3367.76C1447.29 3359.4 1454.89 3351.16 1455.47 3343.19C1455.81 3338.53 1453.74 3334.18 1449.76 3330C1445.78 3325.82 1439.89 3321.82 1432.59 3317.9C1417.95 3310.04 1397.59 3302.42 1375.41 3294.1C1345.79 3283.01 1312.9 3270.71 1285.99 3254.93C1259.06 3239.17 1238.11 3219.96 1232.36 3195.07C1221.3 3147.2 1273.12 3107.11 1323.69 3068.01C1348.04 3049.17 1372.1 3030.56 1388.73 3011.41C1405.33 2992.25 1414.48 2972.56 1409.01 2951.58C1403.37 2930.01 1384.37 2915.02 1358.12 2903.2C1331.87 2891.38 1298.37 2882.69 1263.75 2873.72C1227.21 2864.24 1189.44 2854.47 1157.64 2840.32C1125.85 2826.15 1100.01 2807.64 1087.36 2780.7C1075.06 2754.5 1077.38 2724.92 1088.96 2694.28C1100.55 2663.65 1121.37 2631.96 1146.06 2601.58C1195.43 2540.79 1260.28 2485.11 1297.44 2453.19C1342.02 2414.92 1379.17 2389.72 1408.25 2369.98C1454.54 2338.57 1480.42 2321.02 1483.36 2286.59C1487.15 2242.08 1450.61 2192.43 1392.82 2151.5C1335.01 2110.57 1255.98 2078.36 1174.73 2068.72C1121.13 2062.37 1078.3 2067.23 1038.86 2078.7C1034.83 2079.88 1030.83 2081.12 1026.86 2082.43C994.469 2093.09 963.911 2108.01 930.901 2124.52C928.366 2125.8 925.821 2127.06 923.266 2128.35C851.056 2164.57 765.847 2207.28 624.398 2229.63C605.77 2232.57 499.531 2248.27 370.43 2241.15C305.884 2237.59 235.598 2228.33 167.724 2208.9C99.8189 2189.47 34.3063 2159.9 -20.732 2115.71C-86.7129 2062.75 -119.103 2003.7 -136 1961.92L-104.038 1954.33C-90.1534 1988.68 -71.2915 2020.06 -47.6964 2048.11L-21.9942 2035.26V1120.24C-26.2084 1107.5 -27.8472 1094.94 -26.7479 1082.77C-22.9205 1040.64 11.6782 1018.63 59.5708 988.191C88.4285 969.852 124.33 947.022 167.591 912.193C205.02 882.073 267.672 831.655 315.534 776.418C341.287 746.712 359.243 719.501 368.913 695.539C379.398 669.557 380.161 647.287 371.183 629.361C362.511 612.093 344.85 598.341 315.565 586.123C286.676 574.075 250.51 565.301 215.565 556.806C178.839 547.886 144.169 539.465 114.945 527.125C77.0686 511.134 55.2447 491.067 48.2008 465.766C41.4622 441.561 49.6971 417.32 73.4245 391.703C91.8283 371.806 117.622 353.113 142.551 335.029C188.937 301.405 232.737 269.642 224.696 237.028C221.103 222.461 207.697 208.99 183.695 195.81C159.417 182.497 127.791 171.398 99.9003 161.601C76.804 153.509 55.0004 145.854 38.2151 137.396C27.354 131.92 19.17 126.407 13.2254 120.542C4.58338 112.023 0.39976 102.397 1.14283 92.6977C2.38468 76.427 16.4216 62.2374 42.8262 50.5425C64.4669 40.9529 95.5844 32.3247 138.001 24.1346C228.656 6.67138 374.206 -8.85692 570.632 -22L570.602 -21.9635L573.706 1.96178C362.592 16.0784 228.371 31.6311 146.643 47.3784C105.774 55.2521 78.0357 63.1744 60.3749 71.0116C42.7142 78.8488 35.1104 86.5764 34.5302 94.0485C34.1943 98.4052 36.2607 102.482 40.2407 106.401C44.2207 110.319 50.1144 114.067 57.4128 117.755C72.0504 125.117 92.4085 132.261 114.589 140.049C144.21 150.454 177.099 161.979 204.012 176.753C230.936 191.526 251.894 209.537 257.635 232.866C268.7 277.735 216.878 315.302 166.309 351.957C141.96 369.615 117.897 387.054 101.275 405.004C84.6724 422.954 75.5214 441.415 80.9978 461.069C86.6268 481.295 105.631 495.35 131.883 506.425C158.135 517.499 191.634 525.64 226.253 534.049C262.786 542.921 300.571 552.097 332.36 565.362C364.149 578.626 389.994 595.98 402.637 621.232C414.943 645.79 412.622 673.524 401.038 702.232C389.455 730.94 368.628 760.634 343.944 789.11C294.555 846.088 229.724 898.271 192.561 928.184C147.976 964.059 110.833 987.68 81.751 1006.18C35.4565 1035.63 9.58131 1052.07 6.63955 1084.33C2.85293 1126.06 39.3857 1172.6 97.1825 1210.95C154.99 1249.31 234.02 1279.51 315.269 1288.54C368.873 1294.49 411.686 1289.93 451.14 1279.18C490.594 1268.42 526.669 1251.48 566.734 1232.64C638.944 1198.7 724.153 1158.66 865.602 1137.72C884.23 1134.96 990.469 1120.25 1119.57 1126.92C1184.12 1130.26 1254.4 1138.95 1322.28 1157.15C1390.18 1175.36 1455.69 1203.08 1510.73 1244.49C1576.71 1294.13 1609.1 1349.48 1626 1388.63Z" fill="#FDE3CB"/>
</g>
<defs>
<clipPath id="clip0_27_694">
<rect width="1762" height="3489" fill="white" transform="translate(-136 -22)"/>
</clipPath>
</defs>
</svg>
