<svg width="384" height="897" viewBox="0 0 384 897" fill="none" xmlns="http://www.w3.org/2000/svg">
<path d="M139.312 0.0299957L140.032 15.1578C91.0879 24.0865 59.9691 33.9251 41.0204 43.8837C31.5431 48.863 25.1156 53.8823 21.018 58.8316C16.9203 63.7809 15.1583 68.6802 15.0237 73.3995C14.9476 76.1591 15.4217 78.7387 16.3466 81.2184C17.2715 83.688 18.6355 86.0677 20.3272 88.3973C23.7224 93.0567 28.4406 97.576 33.5802 102.505C40.4467 109.084 48.0742 116.373 54.3144 125.722C60.5545 135.071 65.4132 146.459 66.7478 161.217C69.3118 189.603 57.2998 213.369 45.5746 236.546C39.9257 247.715 34.3471 258.753 30.4953 270.101C26.6435 281.46 24.5244 293.128 25.7947 305.566C27.1001 318.354 31.508 327.243 37.5901 334.252C43.678 341.261 51.446 346.41 59.4716 351.73C67.942 357.349 76.6993 363.148 84.0692 371.537C91.4392 379.926 97.4335 390.904 100.36 406.882C103.217 422.419 102.673 439.957 99.9916 458.114C97.3047 476.272 92.4753 495.059 86.7561 513.077C75.3061 549.121 60.2794 582.127 51.6626 601.044C41.3248 623.741 32.7139 638.678 25.9703 650.387C15.2344 669.014 9.23426 679.413 8.55522 699.83C7.67715 726.216 16.1476 755.662 29.5469 779.928C42.9463 804.195 61.2745 823.292 80.1121 829.001C92.5397 832.771 102.468 829.891 111.611 823.082C120.755 816.273 129.12 805.555 138.41 793.646C155.152 772.179 174.909 746.853 207.701 733.605C212.022 731.855 236.649 722.556 266.585 726.776C281.553 728.886 297.844 734.385 313.585 745.893C329.326 757.412 344.516 774.939 357.278 801.145C372.574 832.541 380.084 867.556 384 892.322L376.589 896.822C371.303 863.396 362.915 834.73 351.664 811.634C340.782 789.307 327.06 771.979 310.869 760.131C297.522 750.372 282.437 744.243 266.029 741.934C237.445 737.894 213.737 746.683 209.27 748.483C177.923 761.141 159.191 785.167 142.666 806.354C133.224 818.463 124.308 829.901 114.374 837.29C102.983 845.759 91.726 847.889 78.9354 844.019C59.536 838.13 39.6213 818.843 24.2902 791.087C8.38547 762.281 -0.166939 728.666 0.822353 698.84C1.71213 672.184 9.73184 658.266 20.8365 639.008C27.5274 627.41 35.8515 612.962 45.879 590.935C54.5544 571.878 69.0835 539.983 80.1765 505.048C86.1473 486.25 90.3094 469.043 92.5514 453.885C94.9807 437.447 95.1622 423.359 93.0782 412.021C91.0704 401.093 86.9727 392.404 80.1882 384.675C73.4914 377.056 65.1088 371.497 57.0013 366.128C48.4898 360.488 40.4467 355.159 33.6739 347.35C24.8932 337.242 19.8355 324.533 18.1964 308.536C16.6335 293.218 18.5477 277.89 24.0444 261.683C28.3118 249.094 34.2885 237.276 40.0721 225.838C50.8255 204.571 60.9818 184.474 59.1145 163.847C58.2832 154.638 55.1749 146.109 49.6079 137.78C43.9766 129.351 36.6476 122.342 30.1792 116.143C24.8229 111.014 19.7711 106.185 15.8783 100.826C13.3612 97.366 11.4646 93.8766 10.0831 90.1671C8.08106 84.7779 7.10933 78.6887 7.27909 72.5596C7.56593 62.2711 10.8206 53.2924 16.9437 45.8934C21.9604 39.8343 29.1782 34.3651 39.0067 29.1958C60.0335 18.1374 93.7807 8.31881 139.323 0" fill="#FDE3CB"/>
</svg>
